<svg width="96" height="96" viewBox="0 0 96 96" xmlns="http://www.w3.org/2000/svg" role="img" aria-label="Recent entries">

  <!-- Stem -->
  <path d="M48 88 L48 48" stroke="#9a8660" stroke-width="2" stroke-linecap="round" fill="none"/>

  <!-- Lower-left leaf — sage -->
  <path d="M48 76 C42 70 31 65 22 63 C29 67 40 72 48 76Z" fill="#849a6a"/>

  <!-- Lower-right leaf — olive -->
  <path d="M48 76 C54 70 65 65 74 63 C67 67 56 72 48 76Z" fill="#8a8f56"/>

  <!-- Upper-left leaf — dusty green -->
  <path d="M48 60 C41 54 31 50 23 48 C30 52 40 56 48 60Z" fill="#6b8068"/>

  <!-- Upper-right leaf — warm khaki -->
  <path d="M48 60 C55 54 65 50 73 48 C66 52 56 56 48 60Z" fill="#a09368"/>

  <!-- Bud outer tepals — warm cream with border -->
  <path d="M48 48 C43 42 41 30 44.5 19 Q48 12 51.5 19 C55 30 53 42 48 48Z" fill="#ddd5b0" stroke="#b0a070" stroke-width="0.8"/>

  <!-- Bud inner tepal — lighter -->
  <path d="M48 46 C46 39 45.5 28 47.5 19.5 Q48 16 48.5 19.5 C50.5 28 50 39 48 46Z" fill="#ece6c8"/>

</svg>
